<?xml version="1.0" standalone="no"?>
<!DOCTYPE svg PUBLIC "-//W3C//DTD SVG 1.1//EN" "http://www.w3.org/Graphics/SVG/1.1/DTD/svg11.dtd" >
<svg xmlns="http://www.w3.org/2000/svg">
<metadata>Generated by IcoMoon</metadata>
<defs>
<font id="icomoon" horiz-adv-x="1024">
<font-face units-per-em="1024" ascent="960" descent="-64" />
<missing-glyph horiz-adv-x="1024" />
<glyph unicode="&#x20;" horiz-adv-x="512" d="" />
<glyph unicode="&#xe900;" glyph-name="1" d="M512 960c-281.6 0-512-230.4-512-512s230.4-512 512-512c281.6 0 512 230.4 512 512s-230.4 512-512 512zM512 44.8c-224 0-403.2 179.2-403.2 403.2s179.2 403.2 403.2 403.2c224 0 403.2-179.2 403.2-403.2s-179.2-403.2-403.2-403.2zM492.801 704c38.4 0 64-25.6 64-64v-185.6l121.599-76.8c32-19.2 38.4-57.6 19.2-89.6s-57.6-38.4-89.599-19.2l-121.6 76.8c-6.4 0-19.2 6.4-25.6 19.2-12.8 12.8-25.6 25.6-32 51.2 0 6.4 0 12.8 0 25.6v198.4c0 32 25.6 64 64 64z" />
<glyph unicode="&#xe901;" glyph-name="2" horiz-adv-x="1317" d="M1150.208 960h-983.847c-92.124 0-166.361-88.697-166.361-198.768v-626.466c0-110.065 74.236-198.766 166.361-198.766h983.847c92.131 0 166.363 88.7 166.363 198.766v626.466c0 110.070-74.233 198.768-166.363 198.768zM1124.272 831.762l-465.986-301.595-465.987 301.595h931.973zM1150.208 64.234h-983.847c-32.199 0-59.031 32.066-59.031 70.532v613.642l517.863-350.753c9.839-8.549 21.466-13.893 33.093-13.893s23.254 4.275 33.093 13.893l517.862 350.753v-613.642c0-39.541-26.829-70.532-59.034-70.532z" />
<glyph unicode="&#xe902;" glyph-name="3" horiz-adv-x="780" d="M390.095 732.024c-93.298 0-169.041-74.118-169.041-165.413s75.743-165.413 169.041-165.413c93.298 0 169.043 74.117 169.043 165.413s-75.745 165.413-169.043 165.413zM390.095 655.679c50.257 0 91.022-39.89 91.022-89.068s-40.765-89.069-91.022-89.069c-50.257 0-91.022 39.89-91.022 89.069s40.765 89.068 91.022 89.068zM390.095 935.619c-215.267 0-390.095-171.075-390.095-381.722 0-98.773 38.294-197.828 91.185-286.389 76.393-127.844 182.792-233.579 237.535-283.682 0.162-0.098 0.26-0.224 0.357-0.317 34.588-30.857 87.512-30.857 122.035 0.063 0.098 0.093 0.195 0.156 0.293 0.254 54.807 50.132 161.205 155.838 237.601 283.682 52.892 88.561 91.185 187.616 91.185 286.389 0 210.647-174.826 381.722-390.096 381.722zM390.095 859.274c172.228 0 312.077-136.847 312.077-305.378 0-85.665-34.655-171.106-80.521-247.867-71.68-119.954-171.644-219.014-223.234-266.186-4.681-4.106-11.703-4.169-16.482-0.19-51.818 47.362-151.714 146.486-223.394 266.377-45.869 76.761-80.522 162.202-80.522 247.867 0 168.53 139.849 305.378 312.076 305.378z" />
<glyph unicode="&#xe903;" glyph-name="4" horiz-adv-x="977" d="M935.35 276.136c-0.317 0.321-0.633 0.638-0.633 0.638l-0.321 0.317-91.318 91.318c-25.772 25.772-59.816 39.773-96.088 39.773-35.956 0-70-14.001-95.455-39.452-0.321-0.321-0.321-0.321-0.638-0.638l-48.365-48.365-223.361 223.366 48.364 48.364c0.318 0.318 0.318 0.318 0.636 0.636 52.501 52.818 52.501 138.727-0.318 191.546l-91.636 91.636c-25.773 25.454-59.818 39.773-95.773 39.773s-70-14-95.772-39.455c-0.318-0.318-0.637-0.636-0.955-0.954l-41.682-41.682c-21.955-21.955-38.818-38.818-39.455-39.455-64.591-64.591-79.863-167.682-42.636-289.864 34.045-111.998 109.136-230.047 210.954-331.865 142.545-142.224 316.911-230.679 455.002-230.679 68.408 0 125.999 21.634 166.726 62.045 0.954 0.954 24.18 24.18 51.866 51.861l30.543 30.548c52.182 52.182 52.82 137.137 1.271 190.273-0.317-0.321-0.633 0-0.954 0.317zM867.579 152.683c-0.321-0.321-0.638-0.638-0.954-0.954l-29.91-29.91c-27.364-27.364-50.274-50.274-51.866-51.866-22.905-22.91-56.315-34.365-99.272-34.365-112.319 0-264.408 79.546-387.544 203.003-91 91.001-157.5 195.044-187.091 292.408-26.091 85.909-19.409 156.864 18.773 194.728l82.091 82.091c0.318 0.318 0.318 0.318 0.318 0.318 7.637 7.318 17.5 11.455 28 11.455s20.682-4.136 28.318-11.455l91.636-91.636c15.591-15.591 15.591-41.364 0-56.954l-82.091-82.091c-18.773-18.773-18.773-49 0-67.455l290.816-290.817c8.909-8.909 21.001-14.001 33.727-14.001 12.73 0 24.823 5.092 33.731 14.001l81.771 81.771c0.317 0.321 0.638 0.638 0.954 0.954 7.638 7.322 17.501 11.455 28.318 11.455s21.001-4.133 28.635-11.771l91.955-91.955c14.955-15.909 14.955-41.365-0.317-56.953z" />
<glyph unicode="&#xe904;" glyph-name="5" horiz-adv-x="1126" d="M1060.874 744.445c-29.025 39.008-74.788 61.984-123.392 61.953h-695.816l-16.384 51.201c-21.76 61.569-80.097 102.657-145.41 102.401h-28.672c-28.288 0-51.201-22.912-51.201-51.2s22.912-51.201 51.201-51.201h28.672c22.017 0.064 41.601-13.952 48.641-34.817l25.089-80.897 87.041-426.498c14.4-71.716 77.377-123.361 150.53-123.397h494.599c75.935-1.024 141.215 53.601 153.6 128.517l48.64 291.841c11.807 45.856 1.792 94.593-27.136 132.097zM986.634 637.948v-6.144l-48.64-294.401c-4.065-25.057-25.825-43.331-51.2-43.008h-495.623c-24.705-0.512-46.241 16.732-51.201 40.96l-72.705 368.642h670.216c16.128 0 31.293-7.584 40.96-20.48 9.82-13.024 12.892-29.953 8.192-45.569zM563.205 38.39c0-41.405-24.96-78.751-63.201-94.592-38.272-15.841-82.305-7.107-111.585 22.175s-38.048 73.344-22.176 111.616c15.808 38.241 53.152 63.201 94.561 63.201 56.547 0 102.402-45.855 102.402-102.4zM972.81 38.39c0-41.405-24.96-78.751-63.201-94.592-38.272-15.841-82.304-7.107-111.585 22.175s-38.047 73.344-22.175 111.616c15.805 38.241 53.151 63.201 94.561 63.201 56.54 0 102.4-45.855 102.4-102.4z" />
<glyph unicode="&#xe905;" glyph-name="6" horiz-adv-x="1650" d="M472.513 945.521c-24.321 21.281-61.288 18.816-82.568-5.505l-375.466-453.485c-19.304-22.062-19.304-55.002 0-77.064l375.466-453.483c21.28-24.32 58.247-26.789 82.568-5.507s26.786 58.249 5.505 82.569l-290.55 356.437h1403.794c32.319 0 58.516 26.2 58.516 58.516s-26.197 58.514-58.516 58.514h-1403.794l290.55 356.439c21.281 24.321 18.817 61.288-5.505 82.568z" />
<glyph unicode="&#xe906;" glyph-name="7" horiz-adv-x="1650" d="M1177.264 945.521c24.32 21.281 61.286 18.816 82.569-5.505l375.467-453.485c19.302-22.062 19.302-55.002 0-77.064l-375.467-453.483c-21.282-24.32-58.249-26.789-82.569-5.507s-26.783 58.249-5.507 82.569l290.554 356.437h-1403.798c-32.316 0-58.514 26.2-58.514 58.516s26.198 58.514 58.514 58.514h1403.798l-290.554 356.439c-21.276 24.321-18.813 61.288 5.507 82.568z" />
<glyph unicode="&#xe907;" glyph-name="8" horiz-adv-x="751" d="M360.54-64c-198.8 0-360.54 164.26-360.54 366.179v291.622c0 201.919 161.74 366.199 360.54 366.199s360.54-164.28 360.54-366.199v-292.741c0.020-201.281-161.741-365.059-360.54-365.059zM360.54 892.18c-161.4 0-292.74-133.86-292.74-298.38v-291.601c0-164.519 131.32-298.38 292.74-298.38s292.741 133.342 292.741 297.26v292.721c0 164.539-131.321 298.38-292.741 298.38zM360.107 686.933c23.564 0 42.667-19.103 42.667-42.667v-119.467c0-23.564-19.103-42.667-42.667-42.667s-42.667 19.103-42.667 42.667v119.467c0 23.564 19.103 42.667 42.667 42.667z" />
<glyph unicode="&#xe908;" glyph-name="9" horiz-adv-x="1339" d="M556.98 124.518l0.003-0.008-111.396-111.395-445.586 445.587 111.397 111.396 334.186-334.186 724.077 724.081 111.403-111.396-724.084-724.078z" />
<glyph unicode="&#xe909;" glyph-name="10" horiz-adv-x="1485" d="M270.916 291.18c-31.848-80.23-81.839-159.647-149.165-235.843-21.367-24.192-24.189-58.86-6.854-86.277 13.304-20.961 35.88-33.055 59.666-33.055 6.853 0 13.707 0.804 20.157 2.821 142.715 41.523 474.908 189.481 483.781 662.373 3.625 182.627-129.818 339.452-303.574 357.19-95.95 9.272-191.899-21.77-262.854-85.871-71.357-64.504-112.075-156.019-112.075-251.969 0-159.647 113.285-299.542 270.916-329.371zM176.983 800.759c45.153 40.718 101.997 62.488 162.066 62.488 8.466 0 17.335-0.403 25.802-1.209 124.17-12.498 219.311-126.186 216.894-258.822-6.047-327.36-183.433-474.509-330.18-540.219 46.766 62.484 83.452 126.991 109.254 192.302 10.079 25.395 8.466 54.021-4.435 78.208-13.707 25.4-37.896 43.54-66.52 49.587-112.075 23.383-193.108 123.366-193.108 237.457 0 68.535 29.027 134.249 80.227 180.208zM887.332-30.94c13.302-20.961 35.881-33.055 59.668-33.055 6.851 0 13.706 0.804 20.157 2.821 142.715 41.523 474.906 189.481 483.779 662.373 3.226 182.627-130.217 339.452-303.974 357.191-95.549 9.676-191.498-21.77-262.451-85.871s-112.077-156.019-112.077-251.968c0-159.647 113.285-299.543 270.915-329.372-31.846-80.23-81.838-159.647-149.161-235.843-21.371-24.591-24.192-59.264-6.856-86.277zM1133.256 255.299c10.076 25.395 8.463 54.021-4.439 78.208-13.706 25.4-37.893 43.54-66.519 49.587-111.672 23.383-192.707 123.366-192.707 237.457 0 68.535 29.030 134.248 80.23 180.208 44.749 40.718 101.591 62.488 162.063 62.488 8.468 0 16.932-0.403 25.805-1.209 124.17-12.497 219.31-126.186 216.893-258.822-6.047-327.355-183.434-474.509-330.179-540.219 46.362 62.49 83.046 126.991 108.851 192.302z" />
<glyph unicode="&#xe90a;" glyph-name="11" d="M546.133 960h-68.267v-477.867h-477.867v-68.267h477.867v-477.867h68.267v477.867h477.867v68.267h-477.867v477.867z" />
<glyph unicode="&#xe90b;" glyph-name="12" d="M512 728c-110.4 0-200-89.6-200-200s89.6-200 200-200c110.4 0 200 89.6 200 200s-89.6 200-200 200zM512 408c-66.133 0-120 53.867-120 120s53.867 120 120 120c66.133 0 120-53.867 120-120s-53.867-120-120-120zM512 960c-287.2 0-512-224.8-512-512 0-288 225.867-512 512-512 286.4 0 512 224.269 512 512 0 287.2-224.8 512-512 512zM512 16c-93.867 0-180 28.531-250.133 77.6 47.2 93.331 144.266 154.4 250.133 154.4s203.2-61.069 250.131-154.4c-70.131-49.069-156.264-77.6-250.131-77.6zM824.531 146.931c-26.131 45.338-61.6 84.8-105.331 115.469-60.8 42.931-132.533 65.6-207.2 65.6s-146.4-22.669-207.2-65.6c-43.467-30.669-79.2-69.869-105.333-115.469-74.4 77.338-119.467 182.936-119.467 301.069 0 242.133 189.867 432 432 432 242.131 0 432-189.867 432-432 0-118.133-45.069-223.731-119.469-301.069z" />
<glyph unicode="&#xe90c;" glyph-name="13" d="M1020.998 139.002c6.202-15.002 2.4-32.403-9.197-43.802-7.603-7.398-17.6-11.2-27.802-11.2-5.402 0-11.002 1.203-16.198 3.398l-214.598 94.605c-27.002-10.202-54.605-18.003-83.002-23.206-28.998-47.795-70.602-88.397-121.002-117.798-56.4-32.998-121.4-50.598-188.2-50.995-1 0-1.999-0.205-3-0.205-46.2 0-91 8-133.4 23.802l-168.4-74.202c-5.2-2.195-10.6-3.398-16.2-3.398-10.2 0-20.2 3.802-27.8 11.2-11.6 11.398-15.4 28.602-9.2 43.802l58.4 144.595c-40.2 54.605-61.4 118.202-61.4 185.403 0 107.201 55.6 207 149.6 269.201 8.6 95.6 53.4 184.4 128 252.6 82.6 75.6 192 117.2 308.4 117.2s225.802-41.6 308.4-117.2c83.597-76.4 129.6-178.4 129.6-287 0-18-1.6-38.399-4.403-57.599-3.2-21.8-23.597-37-45.395-33.6-21.798 3.2-37.005 23.6-33.6 45.4 2.195 15.2 3.597 31.8 3.597 45.8-0.198 178.8-160.8 324.2-358.198 324.2-197.4 0-358-145.4-358-324.2 0-156.6 143.8-324.203 358-324.203 53.2 0 104.4 10.4 152.202 30.803 10.202 4.403 21.798 4.198 31.795-0.198l140.006-61.6-47.206 116.602c-8.198 20.397 1.6 43.796 22.003 51.997s43.802-1.6 52-22l84.198-208.198zM563.2 152c-110.8 5.203-213.4 48.403-291 123.2-62.4 60-103.6 136.4-118.4 216.2-47-45.999-74-106.4-74-170.4 0-55.796 19.999-108.801 57.599-153 9.601-11.398 12.2-27.2 6.6-40.998l-30-74.598 93.6 41.197c10.2 4.397 21.6 4.602 31.8 0.198 36.8-15.597 76.001-23.597 116.801-24 0.6 0 1 0 1.599 0 79 0.205 153.4 31.002 205.4 82.202z" />
<glyph unicode="&#xe90d;" glyph-name="14" d="M459.508 960c-253.367 0-459.508-206.14-459.508-459.508 0-253.365 206.14-459.824 459.508-459.824 108.177 0 207.736 37.97 286.236 100.833l191.462-191.14c20.101-19.149 52.014-18.831 71.475 0.635 19.789 19.784 20.106 51.379 0.957 71.48l-191.457 191.462c62.863 78.817 100.833 178.376 100.833 286.553 0 253.367-206.459 459.508-459.507 459.508zM459.508 857.887c197.844 0 357.393-159.232 357.393-357.395 0-197.844-159.232-357.716-357.393-357.716-197.843 0-357.395 159.872-357.395 357.716 0 198.163 159.232 357.395 357.395 357.395z" />
<glyph unicode="&#xe90e;" glyph-name="15" d="M819.2 960c28.29 0 51.2-22.912 51.2-51.2v-102.4h102.4c28.29 0 51.2-22.912 51.2-51.2s-22.91-51.2-51.2-51.2h-102.4v-102.4c0-28.286-22.91-51.2-51.2-51.2s-51.2 22.914-51.2 51.2v102.4h-102.4c-28.29 0-51.2 22.912-51.2 51.2s22.91 51.2 51.2 51.2h102.4v102.4c0 28.288 22.91 51.2 51.2 51.2zM164.352 833.12l-61.184-15.296c4.48-115.2 28.288-220.928 68.448-314.849l103.488 126.177c17.504 22.496 18.944 25.344 19.68 27.296 1.216 3.36 1.728 6.912 1.504 10.496-0.16 2.112-0.768 5.248-11.584 32.288l-36.416 90.976c-7.36 18.368-11.84 29.472-15.808 37.568-1.824 3.744-3.136 5.952-4.032 7.264-0.8 1.152-1.184 1.536-1.216 1.568-3.584 3.392-8.064 5.696-12.928 6.624-0.064 0-0.608 0.128-1.984 0.064-1.568-0.064-4.128-0.288-8.224-0.96-8.928-1.536-20.544-4.416-39.744-9.216zM222.72 403.808l131.966 160.898c0.29 0.352 0.546 0.672 0.833 1.024 1.024 1.311 2.017 2.591 3.041 3.901 12.704 16.258 25.47 32.611 32.447 51.841 6.079 16.768 8.608 34.624 7.393 52.416-1.376 20.416-9.155 39.648-16.831 58.816-0.611 1.536-1.219 3.040-1.826 4.576l-37.024 92.512c-6.527 16.288-12.447 31.104-18.367 43.168-6.4 13.024-14.4 26.272-26.624 37.888-17.888 16.992-40.288 28.448-64.544 32.992-16.576 3.104-32 1.824-46.304-0.576-13.248-2.24-28.704-6.112-45.76-10.4-0.544-0.128-1.088-0.288-1.632-0.416l-100.736-25.184c-22.752-5.696-38.752-26.176-38.752-49.664 0-176.48 40.736-336.865 115.328-472.672 0.288-0.546 0.576-1.089 0.896-1.632 38.624-69.984 86.272-133.376 141.952-189.088 63.968-63.969 138.112-117.313 220.67-158.56 0.611-0.321 1.219-0.608 1.826-0.928 128.799-64 278.016-98.72 440.928-98.72 23.487 0 43.967 16.002 49.664 38.782l25.153 100.738 0.416 1.632c4.256 17.026 8.127 32.512 10.4 45.759 2.43 14.305 3.71 29.73 0.573 46.305-4.543 24.224-15.998 46.657-32.99 64.512-11.616 12.223-24.866 20.224-37.888 26.624-12.066 5.953-26.849 11.841-43.168 18.367l-82.753 33.12c-1.761 0.707-3.519 1.41-5.246 2.113-21.794 8.769-43.619 17.568-66.563 18.272-19.965 0.608-39.806-3.454-57.952-11.902-20.797-9.697-37.407-26.402-53.982-43.008-1.314-1.314-2.625-2.656-3.936-3.97-0.034 0-0.034-0.031-0.065-0.031l-130.082-129.44c-60.447 33.792-114.91 75.039-162.59 122.72-40.896 40.929-77.056 86.818-107.872 137.216zM591.776 97.505c87.617-34.048 184.863-54.272 290.048-58.337l15.295 61.184c4.799 19.2 7.649 30.816 9.185 39.711 0.703 4.13 0.928 6.69 0.99 8.257 0.065 1.44-0.061 1.952-0.061 1.983-0.898 4.864-3.202 9.346-6.595 12.93-0.031 0.031-0.416 0.447-1.567 1.215-1.311 0.898-3.488 2.208-7.233 4.031-8.096 4-19.2 8.448-37.567 15.811l-81.183 32.478c-30.915 12.353-34.56 13.025-36.929 13.090-4 0.126-7.97-0.672-11.585-2.403-2.144-0.99-5.246-3.038-28.798-26.59l-0.099-0.096-103.902-103.264z" />
<glyph unicode="&#xe90f;" glyph-name="16" d="M930.178 536.127l-787.669 393.864c-48.634 24.288-107.768 4.558-132.114-44.077-6.808-13.673-10.385-28.788-10.385-44.077v-787.668c0-54.402 44.019-98.481 98.422-98.481 15.288 0 30.404 3.58 44.077 10.386l787.669 393.862c48.691 24.233 68.478 83.365 44.19 132.057-9.574 19.098-25.096 34.615-44.19 44.134zM196.912 213.457v469.094l469.094-234.519-469.094-234.575z" />
<glyph unicode="&#xe910;" glyph-name="17" horiz-adv-x="1229" d="M801.288-64h-622.365c-98.664 0-178.923 80.259-178.923 178.924 0 173.517 141.154 314.673 314.673 314.673h350.899c173.519 0 314.673-141.156 314.673-314.673-0.033-98.629-80.292-178.924-178.957-178.924zM314.673 371.231c-141.292 0-256.275-114.982-256.275-256.274 0-66.47 54.087-120.525 120.525-120.525h622.365c66.47 0 120.558 54.054 120.558 120.525 0 141.292-114.982 256.274-256.274 256.274h-350.899zM490.104 491.31c-129.216 0-234.345 105.132-234.345 234.345s105.129 234.344 234.345 234.344c129.213 0 234.345-105.13 234.345-234.344 0-129.181-105.132-234.345-234.345-234.345zM490.104 901.602c-97.021 0-175.946-78.925-175.946-175.946s78.925-175.947 175.946-175.947c97.021 0 175.946 78.925 175.946 175.947s-78.925 175.946-175.946 175.946zM1088.658 55.532h-30.651c-16.115 0-29.184 13.069-29.184 29.217 0 16.113 13.069 29.181 29.184 29.181h30.651c43.62 0 79.063 35.476 79.063 79.096v35.546c0 97.738-79.506 177.247-177.247 177.247h-106.601c-16.115 0-29.181 13.066-29.181 29.181 0 16.113 13.066 29.215 29.181 29.215h106.601c129.933 0 235.643-105.71 235.643-235.643v-35.546c0-75.812-61.681-137.495-137.459-137.495zM825.953 514.163c-20.321 0-40.402 3.149-59.594 9.306-15.363 4.961-23.777 21.384-18.852 36.744 4.928 15.327 21.384 23.777 36.71 18.849 13.409-4.311 27.436-6.5 41.702-6.5 74.954 0 135.918 60.964 135.918 135.92s-60.964 135.92-135.918 135.92c-14.267 0-28.293-2.19-41.669-6.534-15.36-4.961-31.816 3.455-36.777 18.782-4.961 15.361 3.456 31.816 18.783 36.777 19.156 6.192 39.24 9.339 59.663 9.339 107.113 0 194.284-87.169 194.284-194.284 0.069-107.148-87.101-194.319-194.25-194.319z" />
<glyph unicode="&#xe911;" glyph-name="18" horiz-adv-x="1115" d="M36.744-16.425c19.532 21.679 45.482 33.619 73.069 33.619 27.608 0 53.536-11.94 73.069-33.619 57.090-63.436 149.948-63.436 207.038 0 40.293 44.772 105.845 44.772 146.136 0 57.091-63.436 149.95-63.436 207.039 0 19.511 21.679 45.461 33.619 73.068 33.619 27.609 0 53.557-11.94 73.068-33.619 28.535-31.705 66.028-47.57 103.52-47.57s74.984 15.865 103.52 47.57c8.42 9.357 8.42 24.503 0 33.835s-22.032 9.332-30.451 0c-19.531-21.704-45.461-33.619-73.068-33.619s-53.557 11.94-73.068 33.619c-57.089 63.413-149.97 63.413-207.039 0-40.291-44.772-105.822-44.772-146.113 0-57.091 63.413-149.97 63.413-207.039 0-19.511-21.704-45.461-33.619-73.068-33.619-27.609 0-53.537 11.94-73.069 33.619-57.089 63.413-149.97 63.413-207.038 0-8.42-9.357-8.42-24.503 0-33.835 8.399-9.357 22.030-9.357 30.429 0zM950.577 323.177c39.576 0 71.782 32.21 71.782 71.787v83.49c38.596 10.529 67.047 45.848 67.047 87.723 0 41.877-28.451 77.196-67.047 87.725v181.668c0 13.209-10.718 23.929-23.927 23.929-13.207 0-23.927-10.72-23.927-23.929v-181.693c-38.548-10.552-66.949-45.848-66.949-87.7s28.426-77.171 66.949-87.7v-83.488c0-13.21-10.72-23.93-23.927-23.93-13.185 0-23.927 10.72-23.927 23.93v14.452c0 13.21-10.72 23.93-23.927 23.93s-23.927-10.72-23.927-23.93v-14.452c0-39.601 32.206-71.812 71.782-71.812zM955.387 566.176c0 23.761 19.308 43.072 43.069 43.072 23.759 0 43.069-19.31 43.069-43.072s-19.31-43.072-43.069-43.072c-23.736 0-43.069 19.335-43.069 43.072zM998.436 912.142c6.292 0 12.465 2.56 16.916 7.011s7.011 10.625 7.011 16.918c0 6.293-2.56 12.467-7.011 16.918s-10.625 7.011-16.916 7.011c-6.294 0-12.468-2.56-16.916-7.011-4.451-4.451-7.011-10.624-7.011-16.918s2.56-12.467 7.011-16.918c4.449-4.451 10.622-7.011 16.916-7.011zM1.229 294.054c0.383-8.183 4.905-15.624 12.036-19.693 3.661-2.105 7.776-3.136 11.868-3.136 3.852 0 7.705 0.935 11.222 2.776 75.922 40.298 121.72 114.979 142.728 157.166 37.375-30.222 113.321-83.991 211.448-113.996v-82.245c0-6.485 2.608-12.682 7.275-17.18 4.474-4.33 10.456-6.747 16.653-6.747 0.241 0 0.48 0 0.719 0 92.838 2.847 141.508 62.166 158.256 87.723 19.502 3.063 38.764 8.256 57.594 15.483 1.531 0.43 3.063 1.029 4.499 1.793 40.484 16.295 79.080 42.068 114.495 76.789 48.237 47.309 73.623 94.376 74.677 96.363 1.843 3.47 2.824 7.537 2.824 11.485 0 3.925-0.981 7.801-2.824 11.271-1.054 1.987-26.465 49.054-74.677 96.363-35.389 34.698-73.985 60.491-114.447 76.789-1.315 0.669-2.633 1.195-4.019 1.602-18.999 7.323-38.382 12.563-58.049 15.649-16.63 25.461-65.322 85.021-158.354 87.892-6.46 0.191-12.729-2.225-17.394-6.748-4.667-4.499-7.275-10.696-7.275-17.181v-82.388c-98.101-30.005-174.025-83.752-211.424-113.973-20.984 42.234-66.686 116.966-142.633 157.261-7.25 3.853-15.96 3.709-23.066-0.335-7.13-4.069-11.677-11.487-12.036-19.693-5.671-123.786 9.475-180.761 22.588-206.557-13.16-25.818-28.354-82.769-22.683-206.532zM438.338 304.968c22.494-4.572 45.871-7.682 70.012-8.927-15.958-14.261-38.93-28.69-70.012-34.552v43.479zM775.789 500.515c-17.228-27.257-67.163-97.392-144.498-134.098-29.742 38.191-46.014 85.163-46.014 134.003 0 48.934 16.295 95.906 46.132 134.146 77.287-36.732 127.176-106.819 144.379-134.051zM438.338 739.709c31.298-5.863 54.318-20.388 70.253-34.696-24.239-1.222-47.712-4.355-70.253-8.95v43.646zM69.16 517.912c-1.986 2.678-21.894 32.422-21.176 144.53 67.595-54.079 99.467-138.955 99.826-139.913 2.776-7.609 9.188-13.28 17.084-15.123 7.872-1.818 16.151 0.455 21.989 6.055 1.507 1.459 152.443 144.338 344.104 144.338 18.76 0 36.561-2.321 53.382-6.413-30.461-44.148-46.922-96.602-46.922-150.967 0-54.272 16.439-106.653 46.801-150.778-16.796-4.066-34.575-6.387-53.262-6.387-191.088 0-342.596 142.903-344.104 144.338-5.814 5.6-14.093 7.848-21.942 6.055-7.872-1.795-14.309-7.466-17.108-15.053-0.359-0.981-32.326-85.809-99.969-139.865-0.718 112.012 19.238 141.685 21.248 144.341 4.714 4.499 7.417 10.743 7.417 17.324v0.216c0.024 6.581-2.68 12.802-7.37 17.301zM674.643 474.362c14.429 0 26.178 11.749 26.178 26.178 0 14.454-11.749 26.203-26.178 26.203-14.427 0-26.176-11.749-26.176-26.203 0-14.429 11.749-26.178 26.176-26.178z" />
<glyph unicode="&#xe912;" glyph-name="19" horiz-adv-x="1536" d="M1502.707 426.742c-114.166 194.127-283.827 317.119-483.023 352.271-3.564 45.167-14.607 88.87-33.014 130.157-18.644 41.882-67.059 61.595-110.129 44.89-96.627-37.448-185.062-86.613-262.927-146.15-11.123-8.511-13.22-24.385-4.71-35.508 8.512-11.084 24.387-13.222 35.51-4.75 74.063 56.647 158.341 103.477 250.458 139.143 17.892 6.927 37.924-1.069 45.563-18.249 14.528-32.619 23.79-66.939 27.709-102.448-263.916 25.928-520.353-98.45-705.613-293.803-30.402 71.094-85.386 130.988-158.342 171.405-53.203 29.491-118.678-16.348-101.339-72.164 37.765-121.805 37.765-335.529 0-457.372-17.299-55.816 48.136-101.658 101.379-72.166 72.956 40.417 127.941 100.311 158.341 171.407 25.454-26.801 51.899-52.017 79.173-75.489l-11.52-90.77c-6.968-55.183 39.427-102.449 95.084-96.509 47.148 5.025 91.405 20.503 131.702 46.036 347.008-165.348 733.245-79.091 945.741 282.324 23.155 39.388 23.155 88.315-0.041 127.744zM1118.607 699.643c-43.94-53.637-76.201-116.895-95.242-186.606-55.974 44.534-128.097 65.395-200.502 56.451-42.87-5.304-78.536-45.96-65.395-100.826-169.741-3.205-339.011-24.543-504.478-63.455 220.174 264.906 561.719 408.879 865.617 294.436zM805.527 485.445c-3.405 16.113 7.363 31.828 23.552 33.807 67.453 8.312 134.551-15.16 181.937-63.060-6.057-37.051-8.829-74.934-7.127-116.183-96.033 0.159-178.173 50.708-198.362 145.436zM79.606 106.335c-14.409-7.995-31.589 2.534-28.383 12.867 40.931 132.096 40.931 355.279 0 487.378-3.206 10.291 13.934 20.82 28.383 12.864 70.581-39.109 121.528-98.924 144.765-169.426-25.691-30.047-45.682-50.591-45.682-87.089 0-36.536 19.674-56.727 45.682-87.089-23.237-70.579-74.183-130.435-144.765-169.505zM419.922 21.028c-22.999-2.493-42.355 16.904-39.465 39.744l7.56 59.576c37.133-28.342 75.569-53.678 115.036-75.766-26.166-12.549-53.996-20.467-83.131-23.555zM1459.005 324.649c-282.086-479.736-872.307-424.635-1221.255 14.49-2.217 2.811-3.998 5.819-5.305 8.945 177.738 44.457 360.269 68.009 543.194 70.108 43.425-87.050 135.186-130.276 232.604-128.932 7.642-58.706 24.307-115.668 49.482-167.406 4.396-9.027 13.42-14.29 22.802-14.29 18.486 0 30.996 19.474 22.761 36.419-83.287 171.364-62.308 390.828 64.090 534.72 116.897-56.21 216.929-150.582 291.666-277.732 13.855-23.473 13.855-52.728-0.038-76.321zM1229.883 541.46c-55.895 0-101.34-45.443-101.34-101.338 0-55.857 45.445-101.34 101.34-101.34 55.854 0 101.34 45.445 101.34 101.34s-45.445 101.338-101.34 101.338zM1229.883 389.453c-27.948 0-50.67 22.723-50.67 50.67s22.723 50.668 50.67 50.668c27.948 0 50.67-22.72 50.67-50.668s-22.723-50.67-50.67-50.67z" />
<glyph unicode="&#xe913;" glyph-name="20" horiz-adv-x="1009" d="M667.936 303.787c-25.991 59.519-68.981 110.049-123.551 145.219-4.266 2.377-9.263 2.955-13.954 1.615-4.662-1.341-8.624-4.481-10.969-8.746l-16.972-30.843-22.12 32.335c-5.698 8.29-17.001 10.454-25.35 4.816-50.030-37.913-89.913-87.619-116.086-144.671-206.181-25.843-338.934-95.451-338.934-178.59 0-107.703 216.785-188.922 504.257-188.922 287.473 0 504.259 81.219 504.259 188.922-0.031 83.596-133.423 153.325-340.579 178.865zM367.514 280.076c0.306 0.61 0.549 1.22 0.762 1.859 20.688 48.336 52.467 91.094 92.777 124.861l28.001-40.929c3.534-5.303 9.598-8.35 15.966-7.954 6.337 0.304 12.066 3.9 15.113 9.447l21.785 39.559c45.947-34.042 80.773-80.915 100.059-134.766-38.055-23.346-81.291-36.846-125.836-39.284-53.35-2.683-106.366 10.423-152.343 37.669 1.219 3.23 2.437 6.4 3.717 9.538zM353.163 234.667c45.521-25.265 96.677-38.583 148.718-38.766 5.332 0 10.755 0.152 16.239 0.426 47.165 2.56 93.083 16.091 134.093 39.497 10.999-55.527 8.806-112.852-6.399-167.405-92.777-26.941-191.312-26.849-284.059 0.244-17.673 53.577-20.628 110.902-8.593 166.004zM504.257-27.429c-275.62 0-467.695 80.274-467.695 152.351 0 58.422 119.377 115.596 287.655 139.734-1.95-6.279-3.748-12.74-5.361-19.352-55.972-25.174-86.989-60.191-86.989-99.445 0-44.251 39.7-83.901 108.926-108.8l0.274-0.091c0.396-0.121 0.731-0.244 1.128-0.335 52.193-17.677 106.976-26.393 162.063-25.814 55.454-0.549 110.602 8.319 163.131 26.239 69.437 24.839 109.261 64.519 109.261 108.831 0 40.107-31.962 75.52-89.639 100.602-1.463 6.339-3.076 12.526-4.844 18.561 190.215-26.576 289.788-89.326 289.788-140.099-0.031-72.107-192.105-152.381-467.696-152.381zM319.099 86.644c-31.87 17.341-50.669 38.675-50.669 59.246 0 18.621 15.508 37.973 42.626 54.43-3.565-38.094-0.854-76.494 8.043-113.676zM694.048 202.301c29.188-16.792 46.007-36.877 46.007-56.412 0-20.967-19.621-42.696-52.711-60.191 7.923 38.34 10.177 77.624 6.704 116.603zM483.569 498.53c50.12-0.335 91.072 39.954 91.528 90.087v148.846c32.206 7.68 54.935 36.479 54.935 69.607s-22.728 61.928-54.935 69.608v65.036c0 10.088-8.196 18.286-18.281 18.286-10.116 0-18.281-8.198-18.281-18.286v-65.067c-32.205-7.68-54.935-36.48-54.935-69.607s22.73-61.898 54.935-69.609v-148.846c-0.822-29.806-25.198-53.516-54.965-53.516s-54.174 23.741-54.965 53.516v46.263l15.448-15.177c3.442-3.382 8.135-5.272 12.98-5.211 4.844 0.060 9.475 2.011 12.857 5.486s5.271 8.136 5.241 12.983c-0.061 4.845-2.011 9.478-5.484 12.86l-46.557 45.624c-5.24 5.151-13.071 6.644-19.866 3.809-6.795-2.864-11.213-9.509-11.213-16.854v-89.752c0.487-50.134 41.438-90.422 91.559-90.087zM520.163 807.070c-0.427 14.934 8.226 28.618 21.876 34.652 13.65 6.004 29.616 3.17 40.341-7.253 10.726-10.392 14.046-26.271 8.439-40.106-5.606-13.836-19.042-22.888-33.972-22.888-19.958-0.274-36.349 15.664-36.684 35.596zM462.911 320.183c0.031-8.381-4.966-15.939-12.705-19.169-7.708-3.23-16.636-1.494-22.547 4.419-5.941 5.911-7.739 14.811-4.509 22.522 3.199 7.74 10.724 12.8 19.103 12.8 5.454 0 10.724-2.165 14.564-6.005 3.9-3.869 6.093-9.112 6.093-14.567zM376.349 173.928c2.743 9.661 12.737 15.329 22.395 12.677 9.69-2.62 15.417-12.586 12.889-22.278-3.871-14.384-4.724-37.607 3.777-41.965 7.526-3.84 11.426-12.344 9.446-20.572s-9.354-13.988-17.794-13.988c-2.894 0-5.727 0.67-8.318 2.011-38.725 19.839-24.191 77.593-22.395 84.114z" />
<glyph unicode="&#xe914;" glyph-name="21" horiz-adv-x="956" d="M477.867 923.067c-37.702 0-68.267-30.564-68.267-68.267v-341.332h-341.333c-37.703 0-68.267-30.564-68.267-68.267s30.564-68.267 68.267-68.267h341.333v-341.333c0-37.704 30.564-68.267 68.267-68.267s68.267 30.563 68.267 68.267v341.333h341.333c37.704 0 68.267 30.564 68.267 68.267s-30.563 68.267-68.267 68.267h-341.333v341.332c0 37.703-30.564 68.267-68.267 68.267z" />
<glyph unicode="&#xe915;" glyph-name="22" horiz-adv-x="4779" d="M4778.667 434c0-188.513-152.82-341.333-341.333-341.333h-4096c-188.513 0-341.333 152.82-341.333 341.333s152.82 341.333 341.333 341.333h4096c188.513 0 341.333-152.82 341.333-341.333z" />
<glyph unicode="&#xe916;" glyph-name="23" horiz-adv-x="1161" d="M1043.34 609.821l-344.61-0.53-105.953 317.863c-6.007 19.602-25.122 32.846-46.421 32.846s-40.414-13.244-46.967-32.846l-105.95-317.863-344.064 0.53c-21.299 0-40.414-13.244-46.967-32.846s0.546-41.322 18.022-53.507l279.074-196.015-107.042-317.335c-6.554-19.599 0.546-41.322 18.022-53.507s40.414-12.186 57.89 0l277.982 197.079 277.985-197.079c8.738-6.356 18.569-9.004 28.945-9.004s20.207 3.181 28.945 9.004c17.476 12.186 24.576 33.908 18.022 53.507l-107.042 317.335 279.074 196.015c17.476 12.185 24.576 33.906 18.022 53.507s-25.668 32.846-46.967 32.846z" />
<glyph unicode="&#xe917;" glyph-name="24" horiz-adv-x="1161" d="M1043.34 609.821l-344.61-0.53-105.953 317.863c-6.007 19.602-25.122 32.846-46.421 32.846s-40.414-13.244-46.967-32.846l-105.95-317.863-344.064 0.53c-21.299 0-40.414-13.244-46.967-32.846s0.546-41.322 18.022-53.507l279.074-196.015-107.042-317.335c-6.554-19.599 0.546-41.322 18.022-53.507s40.414-12.186 57.89 0l277.982 197.079 277.985-197.079c8.738-6.356 18.569-9.004 28.945-9.004s20.207 3.181 28.945 9.004c17.476 12.186 24.576 33.908 18.022 53.507l-107.042 317.335 279.074 196.015c17.476 12.185 24.576 33.906 18.022 53.507s-25.668 32.846-46.967 32.846zM706.376 384.668c-17.476-12.185-24.579-33.906-18.022-53.507l70.997-210.321-184.050 130.328c-17.476 12.186-40.414 12.186-57.89 0l-184.047-130.328 70.997 210.321c6.554 19.601-0.546 41.322-18.022 53.507l-184.593 129.264 227.738-0.53c21.299 0 40.414 13.244 46.967 32.846l69.905 210.849 69.906-210.319c6.553-19.601 25.668-32.846 46.967-32.846l227.741 0.53-184.593-129.794z" />
<glyph unicode="&#xe918;" glyph-name="25" horiz-adv-x="975" d="M741.181 335.848c-68.267 0-131.657-34.133-165.79-87.771l-209.676 117.029c14.629 24.381 24.381 53.638 24.381 87.771 0 19.505-4.876 39.010-9.752 53.638l219.429 121.905c34.133-34.133 82.895-58.514 141.41-58.514 107.276 0 195.048 87.771 195.048 195.048s-87.771 195.048-195.048 195.048c-107.276 0-195.048-87.771-195.048-195.048 0-19.505 4.876-39.010 9.752-53.638l-219.429-126.781c-34.133 39.010-82.895 63.39-141.41 63.39-107.276 0-195.048-87.771-195.048-195.048s87.771-195.048 195.048-195.048c43.886 0 82.895 14.629 117.029 39.010l234.057-136.533c0-4.876 0-14.629 0-19.505 0-107.276 87.771-195.048 195.048-195.048s195.048 87.771 195.048 195.048c0 107.276-87.771 195.048-195.048 195.048z" />
<glyph unicode="&#xe919;" glyph-name="26" horiz-adv-x="1069" d="M424.113-3.918l-0.004-0.004 77.13-44.522 556.504 963.922-77.112 44.522-511.996-886.802-424.115 244.861-44.522-77.112 424.114-244.865z" />
<glyph unicode="&#xe91a;" glyph-name="27" horiz-adv-x="1396" d="M942.192 932.734c-36.356 36.354-95.297 36.354-131.652 0s-36.354-95.296 0-131.651l213.451-213.447h-930.9c-51.413 0-93.091-41.679-93.091-93.091s41.678-93.091 93.091-93.091h976.077l-258.614-258.615c-36.354-36.355-36.354-95.296 0-131.65 36.355-36.352 95.296-36.352 131.647 0l394.957 394.95c36.352 36.355 36.352 95.296 0 131.651-0.41 0.403-0.81 0.802-1.219 1.195l-393.747 393.748z" />
<glyph unicode="&#xe91b;" glyph-name="28" horiz-adv-x="1152" d="M576-15.603c-8.1 0-16.2 2.253-23.4 6.528-382.051 231.526-552.6 427.725-552.6 635.625 0 181.8 129.375 333.45 310.5 333.45 95.85 0 179.775-42.75 243-123.525 8.325-10.8 15.975-21.6 22.5-31.95 6.75 10.35 14.175 21.15 22.5 31.95 63.228 80.775 147.151 123.525 242.998 123.525 181.126 0 310.502-151.65 310.502-333.45 0-207.9-170.547-403.875-552.6-635.625-7.199-4.275-15.3-6.528-23.4-6.528zM310.5 870c-132.075 0-220.5-112.5-220.5-243.45 0-85.050 38.925-169.65 118.8-258.975 79.65-88.874 199.8-182.25 367.2-285.303 167.174 103.053 287.552 196.653 367.2 285.303 79.872 89.325 118.803 173.925 118.803 258.975 0 130.95-88.429 243.45-220.506 243.45-67.949 0-125.997-29.925-171.898-88.875-35.325-45.45-50.4-91.575-50.625-92.025-5.85-18.9-23.175-31.5-42.975-31.5s-37.125 12.825-42.975 31.5c0 0.45-15.525 47.925-52.2 94.050-45.675 57.6-103.050 86.85-170.325 86.85z" />
<glyph unicode="&#xe91c;" glyph-name="29" horiz-adv-x="1092" d="M728.637 816.796c-0.212 0-0.423 0-0.423 0h-254.294l58.88 59.649c17.706 17.938 17.706 47.114 0 65.268-17.707 17.938-46.507 17.938-64.427 0l-136.533-138.316c-1.067-1.081-2.133-2.161-2.987-3.458-0.427-0.433-0.853-1.081-1.28-1.729s-1.067-1.296-1.494-1.945c-0.427-0.649-0.853-1.297-1.28-1.945s-0.853-1.297-1.066-1.946c-0.427-0.648-0.64-1.296-1.067-2.161-0.213-0.649-0.64-1.297-0.853-1.946s-0.427-1.296-0.64-2.161c-0.214-0.648-0.64-1.513-0.853-2.161s-0.427-1.297-0.427-2.161c-0.214-0.864-0.427-1.513-0.64-2.378s-0.213-1.513-0.427-2.377c0-0.649-0.213-1.296-0.213-1.945-0.214-1.513-0.214-3.026-0.214-4.538s0-3.026 0.214-4.539c0-0.648 0.213-1.296 0.213-1.945 0.214-0.864 0.214-1.729 0.427-2.377 0.214-0.864 0.427-1.513 0.64-2.378 0.213-0.648 0.427-1.296 0.427-2.161 0.213-0.649 0.427-1.513 0.853-2.161 0.213-0.649 0.427-1.297 0.64-2.161 0.214-0.649 0.64-1.296 0.853-1.945 0.427-0.649 0.64-1.513 1.067-2.161s0.64-1.297 1.066-1.945c0.427-0.649 0.853-1.297 1.28-1.945s0.853-1.297 1.494-1.946c0.427-0.648 0.853-1.081 1.28-1.729 0.853-1.081 1.92-2.378 2.987-3.458l136.533-138.316c17.706-17.938 46.507-17.938 64.427 0 17.706 17.938 17.706 47.114 0 65.268l-58.88 59.649h253.864c0.218 0 0.218 0 0.43 0 151.040 0 273.067-123.62 273.067-276.632 0-67.213-26.453-130.32-72.745-177.22-17.708-17.934-17.708-47.111 0-65.27 17.702-17.934 46.503-17.934 64.423 0 62.935 64.41 99.198 150.854 99.198 242.705 0 203.801-162.557 368.699-363.52 368.916zM773.12 131.714c-0.212 0.86-0.212 1.727-0.423 2.376-0.218 0.867-0.43 1.516-0.642 2.376-0.218 0.649-0.43 1.516-0.43 2.164-0.212 0.649-0.423 1.509-0.853 2.157-0.212 0.649-0.423 1.297-0.853 2.164-0.212 0.649-0.635 1.297-0.853 1.946-0.423 0.649-0.635 1.509-1.065 2.157s-0.642 1.297-1.065 1.946c-0.43 0.649-0.853 1.297-1.283 1.946-0.423 0.649-0.853 1.297-1.488 1.946-0.43 0.649-0.853 1.079-1.283 1.727-0.853 1.085-1.918 2.164-2.983 3.243l-136.537 138.319c-17.706 17.938-46.507 17.938-64.427 0-17.707-17.938-17.707-47.114 0-65.266l58.88-59.651h-253.867c-0.214 0-0.214 0-0.427 0-151.040 0-273.067 123.621-273.067 276.634 0 67.213 26.453 130.32 72.746 177.218 17.707 17.938 17.707 47.114 0 65.268-17.706 17.938-46.507 17.938-64.427 0-62.506-63.971-98.773-150.419-98.773-242.486 0-203.8 162.56-368.486 363.52-368.916 0.213 0 0.427 0 0.427 0h254.293l-58.88-59.651c-17.706-17.934-17.706-47.111 0-65.263 17.706-17.94 46.507-17.94 64.427 0l136.533 138.315c1.065 1.079 2.13 2.157 2.983 3.454 0.43 0.437 0.853 1.085 1.283 1.734s1.065 1.297 1.495 1.946c0.423 0.649 0.853 1.297 1.277 1.946 0.43 0.649 0.853 1.29 1.072 1.939 0.423 0.649 0.635 1.297 1.065 2.164 0.212 0.649 0.635 1.297 0.853 1.946 0.212 0.649 0.423 1.297 0.853 2.164 0.212 0.649 0.635 1.509 0.853 2.157 0.212 0.649 0.423 1.297 0.423 2.164 0.218 0.86 0.43 1.509 0.642 2.376s0.212 1.727 0.43 2.376c0 0.649 0.212 1.297 0.212 1.946 0.212 1.516 0.212 3.024 0.212 4.54s0 3.024-0.212 4.54c-0.43 0.649-0.43 1.297-0.642 1.946z" />
<glyph unicode="&#xe91d;" glyph-name="30" horiz-adv-x="951" d="M585.008 447.956l365.717 365.714-77.583 77.58-365.714-365.714-361.277 361.277-77.58-77.58 361.277-361.277-358.363-358.363 77.579-77.583 358.363 358.366 362.803-362.799 77.575 77.575-362.799 362.803z" />
<glyph unicode="&#xe91e;" glyph-name="31" d="M951.043 330.101l-148.056 36.881c-48.637 12.026-99.948-5.077-131.217-44.362l-154.735-193.488c-133.089 79.371-244.53 190.546-323.902 323.903l193.487 154.735c39.017 31.269 56.388 82.579 44.362 131.218l-37.148 148.054c-10.689 42.759-49.172 72.958-93.266 72.958h-204.177c-26.725 0-52.38-11.224-70.553-30.733s-27.259-45.432-25.656-71.889c17.104-238.384 119.726-462.87 288.894-632.038 169.165-169.165 393.651-271.787 632.036-288.89 2.136-0.267 4.543-0.267 6.682-0.267 53.18 0.267 96.208 43.292 96.208 96.475v203.91c0 44.362-30.199 82.844-72.957 93.534zM72.605 885.706c6.147 6.681 14.698 10.423 23.785 10.423h203.91c14.697 0 27.526-9.888 30.999-24.319l37.148-148.054c6.147-24.319-2.674-49.974-22.181-65.744l-185.203-148.321c-55.587 109.838-88.458 229.565-97.010 352.498-0.534 8.552 2.405 17.104 8.552 23.518zM959.861 32.657c0-9.085-3.74-17.638-10.422-23.785-6.414-5.879-14.965-9.085-23.785-8.55-122.667 8.55-242.392 41.421-352.23 97.010l148.321 185.202c15.77 19.507 41.424 28.060 65.744 22.181l148.053-37.148c14.165-3.473 24.32-16.302 24.32-30.999v-203.91zM544.068 736.847c141.642-0.267 256.29-114.915 256.558-256.557 0-17.638 14.43-32.068 32.068-32.068s32.071 14.43 32.071 32.068c-0.267 176.919-143.778 320.429-320.697 320.696-17.638 0-32.068-14.431-32.068-32.070s14.165-32.069 32.068-32.069zM544.068 865.132c212.463-0.267 384.569-172.374 384.836-384.833 0-17.638 14.43-32.071 32.068-32.071s32.071 14.433 32.071 32.071c-0.267 247.736-201.239 448.705-448.976 448.972-17.638 0-32.068-14.431-32.068-32.070s14.165-32.069 32.068-32.069z" />
<glyph unicode="&#xe91f;" glyph-name="32" d="M483.601 951l-459.401-325.999c-15.2-10.8-24.2-28.2-24.2-46.802v-573.599c0-31.599 25.6-57.401 57.4-57.401h909.199c31.602 0 57.401 25.603 57.401 57.401v573.599c0 18.603-9 36.002-24.201 46.802l-459.401 325.999c-16.998 12-39.799 12-56.798 0zM313.6 313.799l-253.6-262.4v476.402l253.6-214.002zM359.6 275.001l131.001-110.401c12.399-10.399 30.598-10.399 42.999 0l130.998 110.401 258.802-267.802h-822.601l258.8 267.802zM710.4 313.799l253.599 214.002v-476.402l-253.599 262.4zM945.001 590.399l-419.8-354.398c-7.6-6.4-18.6-6.4-26.2 0l-420.001 354.398 413.999 293.601c11.401 8 26.601 8 38.002 0l414-293.601z" />
<glyph unicode="&#xe920;" glyph-name="33" horiz-adv-x="849" d="M724.865 835.693c-80.192 80.192-186.855 124.307-300.182 124.307s-220.184-44.115-300.376-124.307c-80.192-80.192-124.307-186.854-124.307-300.181 0-229.398 216.851-420.172 333.512-522.717 16.274-14.314 30.196-26.469 41.37-36.862 13.921-13.135 31.959-19.606 49.801-19.606s35.88 6.471 49.801 19.606c11.177 10.392 25.098 22.745 41.372 36.862 116.464 102.545 333.512 293.319 333.512 522.717-0.197 113.327-44.312 219.989-124.503 300.181zM476.837 56.715c-16.469-14.508-30.782-27.059-42.546-38.233-5.49-5.098-13.921-5.098-19.214 0-11.766 10.979-26.077 23.527-42.548 38.233-109.798 96.466-313.708 275.868-313.708 478.797 0 201.559 164.109 365.668 365.862 365.668 201.755 0 365.863-164.109 365.863-365.862-0.195-202.735-204.106-382.137-313.709-478.603zM424.708 738.64c-103.132 0-187.049-83.917-187.049-187.049s83.918-187.050 187.049-187.050c103.132 0 187.050 83.721 187.050 186.853 0 103.134-83.918 187.246-187.050 187.246zM424.708 423.167c-70.781 0-128.23 57.644-128.23 128.227 0 70.586 57.646 128.23 128.23 128.23s128.227-57.644 128.227-128.23c0-70.584-57.644-128.227-128.227-128.227z" />
</font>
</defs>
</svg>
